#!OML:ASF E:/inclinewalkrobotboard/Project1/Captureday1/Session1/subject1.ASF
:FULLY-SPECIFIED
:DEGREES
351
root 0 0 0 -1.1022004328084078 -6.254405410142166 -7.016116339925392
lowerback 10.360063265575095 2.1391524633572634 6.208101525734321
upperback 0.6917894758506744 3.650688945736335 1.8767961113077505
thorax -4.865044830330147 1.6722681855661061 -2.0465027914752527
lowerneck -18.064285089311593 -3.084909671923504 -1.8687545429233103
upperneck 18.75315970517087 -3.8927748699446116 0.4061861771574824
head 8.82659228736457 -1.8966420327814106 -0.07025529310646822
rclavicle -9.063680912943184E-15 -1.7611308471354511E-15
rhumerus -30.44867537567709 -16.152132812555408 -80.63137221350873
rradius 25.131150414798263
rwrist 3.2421202913657803
rhand -18.669992587618683 26.346698542706164
rfingers 7.125020000000012
rthumb 7.621682272828691 -3.5026759636996943
lclavicle -9.976514858619591E-15 -2.3881057646500116E-15
lhumerus -35.94064033211043 3.9959574279519754 83.37215374024284
lradius 23.63755798370972
lwrist 4.300719229106035
lhand -27.06312340857248 24.24747324885996
lfingers 7.125020000000031
lthumb -0.4826481226748971 54.24058990535758
rfemur 9.15447144477248 8.182396251365354 35.548641856176204
rtibia 27.93594566800011
rfoot -18.28604853905923 -3.4011840358887158
rtoes -5.366598322109174
lfemur -26.508885942577617 -4.070708437383566 -13.24450379865689
ltibia 21.800085006094285
lfoot -4.817537309251621 2.9502402702654433
ltoes 0.39027593511849545
352
root 0 0 0 -1.5698060021491627 -6.218635454304147 -6.340875711498203
lowerback 10.42708128460067 2.153656052865536 5.639080614341394
upperback 0.6011538069180712 3.6118460623919972 1.7800543748213626
thorax -5.012499249421655 1.6670488537579065 -1.8179315766504138
lowerneck -18.15053694871941 -3.210077207979531 -1.9423855219274158
upperneck 19.419694997005205 -4.083712896562355 0.5010489014524502
head 9.09116633677441 -1.9713158376663458 -0.05449504374331088
rclavicle -8.098887656286156E-15 -1.8521202760456337E-15
rhumerus -31.08498851218709 -17.24177357117324 -80.28127703202678
rradius 24.10383918304123
rwrist 4.115279325809163
rhand -18.531768065686887 26.258898332892436
rfingers 7.125020000000014
rthumb 7.754601394769878 -3.583288811216157
lclavicle -9.315214772984924E-15 -2.3731104043904463E-15
lhumerus -37.81477852185137 6.295867147552511 81.71952067080397
lradius 22.35273801658328
lwrist 2.930947446969701
lhand -26.39891480933587 23.97329104008387
lfingers 7.125020000000027
lthumb 0.15762179273637233 53.95305384210421
rfemur 6.8974307348785 5.623209332287821 30.550958997014604
rtibia 36.54052442836745
rfoot -11.161567075979606 -1.4047813843650152
rtoes -4.6699337150722355
lfemur -26.24350858980279 -3.4090909798506166 -13.95115725617446
ltibia 22.39648514559352
lfoot -4.717246674326832 2.0653868643050433
ltoes 0.3840319662849794
353
root 0 0 0 -2.4155282683820616 -6.140414803998773 -4.4263018042605
lowerback 10.683940297359365 2.1503590805941206 4.015757008969646
upperback 0.4121619811254241 3.413468554963189 1.387264185065403
thorax -5.411766988969779 1.604621684383462 -1.2935988583180174
lowerneck -17.633119412808515 -3.3642330699546363 -1.9358448213679513
upperneck 18.974820513862127 -4.275104590530043 0.6305088854117613
head 8.863101974121331 -2.0689484355018637 -0.024599519827611438
rclavicle -5.733201100327676E-15 -1.82374551645785E-15
rhumerus -31.79992527482051 -18.642361048704252 -79.77779757080084
rradius 22.84465772643027
rwrist 5.086680010404055
rhand -18.33995253666595 26.17020840592135
rfingers 7.125020000000018
rthumb 7.939264393185794 -3.662242741492875
lclavicle -6.577764949321906E-15 -2.3454172192953672E-15
lhumerus -38.92006025160095 7.962781167573813 80.3428583311309
lradius 21.490335209635678
lwrist 2.197478862426741
lhand -26.086229321741065 24.055809190401988
lfingers 7.125020000000023
lthumb 0.4562761440158418 54.028155906383276
rfemur -3.165497140629331 3.1366503470832865 24.137182918508806
rtibia 49.876711146827375
rfoot 3.876023328325539 -0.31158718761370974
rtoes 1.7688833914063218
lfemur -25.433892945886182 -2.5815571894070466 -14.927432219786645
ltibia 23.12607611453433
lfoot -4.936064324788713 1.136477376018238
ltoes 0.40354125265686136
354
root 0 0 0 -3.4770284511235574 -5.731281850493618 -2.2647608152068033
lowerback 9.984934940148166 1.9698802644687867 1.873227524660326
upperback 0.0027416890085111417 2.897085955456037 0.9992151438840182
thorax -5.543068701290272 1.402472196907731 -0.4175640468176389
lowerneck -16.603169369432287 -3.0653764123741527 -1.6770254845053796
upperneck 20.835376574490194 -3.965521101614697 0.740067974281362
head 9.350055551501047 -1.888973911657681 0.004683432757020489
rclavicle -4.128461195395898E-15 -2.265299268156578E-15
rhumerus -32.69853108502042 -20.478621959104466 -79.0549736417445
rradius 21.22327072029804
rwrist 6.131099851992899
rhand -18.102239479874477 26.086961700466134
rfingers 7.1250200000000214
rthumb 8.16740269900318 -3.7328387461028
lclavicle -4.616820408434641E-15 -2.764611257747682E-15
lhumerus -39.03070490263009 8.519731249544504 79.75477861286079
lradius 21.217221540088136
lwrist 2.172761205347926
lhand -26.197140026880614 23.95829315287197
lfingers 7.1250200000000214
lthumb 0.34828523978009773 53.92293657332354
rfemur -9.713246567384719 2.4355863929201713 25.682987655801
rtibia 65.42091158688663
rfoot 9.501405227848615 -1.6439223384843165
rtoes 12.715800931557558
lfemur -21.77539726569707 -2.0203344092878184 -17.541708145186966
ltibia 23.520989081559257
lfoot -5.800410746553128 -0.00724997345511369
ltoes 2.9604238608121562
